<svg xmlns="http://www.w3.org/2000/svg" height="24" viewBox="0 -960 960 960" width="24"><path d="m480-417.782 106.956 106.956q12.696 12.696 31.109 12.413 18.413-.283 31.109-12.978 12.696-12.696 12.696-31.109 0-18.413-12.696-31.109L542.218-480l106.956-106.956q12.696-12.696 12.696-31.109 0-18.413-12.696-31.109-12.696-12.696-31.109-12.696-18.413 0-31.109 12.696L480-542.218 373.044-649.174q-12.696-12.696-30.826-12.696-18.131 0-30.827 12.696-12.695 12.696-12.695 31.109 0 18.413 12.695 31.109L417.782-480 310.826-373.044q-12.696 12.696-12.413 30.826.283 18.131 12.978 30.827 12.696 12.695 31.109 12.695 18.413 0 31.109-12.695L480-417.782Zm0 357q-87.522 0-163.913-32.913-76.392-32.913-132.936-89.456-56.543-56.544-89.456-132.936Q60.782-392.478 60.782-480t32.913-163.913q32.913-76.392 89.456-132.936 56.544-56.543 132.936-89.456Q392.478-899.218 480-899.218t163.913 32.913q76.392 32.913 132.936 89.456 56.543 56.544 89.456 132.936Q899.218-567.522 899.218-480t-32.913 163.913q-32.913 76.392-89.456 132.936-56.544 56.543-132.936 89.456Q567.522-60.782 480-60.782Zm0-106.001q131.739 0 222.478-90.739T793.217-480q0-131.739-90.739-222.478T480-793.217q-131.739 0-222.478 90.739T166.783-480q0 131.739 90.739 222.478T480-166.783ZM480-480Z"/></svg>