<svg xmlns="http://www.w3.org/2000/svg" height="24" viewBox="0 -960 960 960" width="24"><path d="M479.871-260.782q23.912 0 40.217-16.175 16.304-16.176 16.304-40.088 0-23.912-16.176-40.499-16.175-16.587-40.087-16.587-23.912 0-40.217 16.587-16.304 16.587-16.304 40.499 0 23.912 16.176 40.088 16.175 16.175 40.087 16.175ZM480-438.87q22.087 0 37.544-15.456 15.457-15.457 15.457-37.544v-147q0-22.087-15.457-37.543Q502.087-691.87 480-691.87q-22.087 0-37.544 15.457-15.457 15.456-15.457 37.543v147q0 22.087 15.457 37.544Q457.913-438.87 480-438.87Zm0 378.088q-87.522 0-163.906-32.96-76.385-32.96-132.888-89.464-56.504-56.503-89.464-132.888Q60.782-392.478 60.782-480t32.96-163.906q32.96-76.385 89.464-132.888 56.503-56.504 132.888-89.464 76.384-32.96 163.906-32.96t163.906 32.96q76.385 32.96 132.888 89.464 56.504 56.503 89.464 132.888 32.96 76.384 32.96 163.906t-32.96 163.906q-32.96 76.385-89.464 132.888-56.503 56.504-132.888 89.464Q567.522-60.782 480-60.782Zm0-106.001q131.739 0 222.478-90.739T793.217-480q0-131.739-90.739-222.478T480-793.217q-131.739 0-222.478 90.739T166.783-480q0 131.739 90.739 222.478T480-166.783ZM480-480Z"/></svg>