<svg xmlns="http://www.w3.org/2000/svg" height="24" viewBox="0 -960 960 960" width="24"><path d="M476.304-240q23.261 0 39.74-16.478 16.478-16.479 16.478-39.819 0-23.341-16.478-39.457-16.479-16.116-39.74-16.116-23.261 0-39.739 16.116-16.478 16.116-16.478 39.457 0 23.34 16.478 39.819Q453.043-240 476.304-240ZM480-60.782q-87.522 0-163.906-32.96-76.385-32.96-132.888-89.464-56.504-56.503-89.464-132.888Q60.782-392.478 60.782-480t32.96-163.906q32.96-76.385 89.464-132.888 56.503-56.504 132.888-89.464 76.384-32.96 163.906-32.96t163.906 32.96q76.385 32.96 132.888 89.464 56.504 56.503 89.464 132.888 32.96 76.384 32.96 163.906t-32.96 163.906q-32.96 76.385-89.464 132.888-56.503 56.504-132.888 89.464Q567.522-60.782 480-60.782Zm0-106.001q131.739 0 222.478-90.739T793.217-480q0-131.739-90.739-222.478T480-793.217q-131.739 0-222.478 90.739T166.783-480q0 131.739 90.739 222.478T480-166.783ZM480-480Zm2.304-160.13q20.442 0 35.569 13.416 15.126 13.416 15.126 33.54 0 19.174-11.521 34.478-11.522 15.305-26.261 28.044-23 20-40.783 44.565-17.782 24.565-17.782 54.565 0 15.918 12.043 26.72T476.796-394q17.204 0 29.4-11.413 12.195-11.413 17.456-28.109 5.131-18.739 17.153-33.261 12.021-14.521 26.325-27.826 23-21.434 38.37-48.282 15.37-26.848 15.37-58.283 0-52.13-40.653-86.043-40.652-33.913-95.087-33.913-40.26 0-75.608 17.13-35.348 17.13-55.609 51.261-8.131 13.696-5.101 29.44 3.03 15.744 16.362 23.908 15.696 9.696 33.239 5.848 17.544-3.848 29.805-18.978 9.869-12.739 24.175-20.174 14.305-7.435 29.911-7.435Z"/></svg>