<svg xmlns="http://www.w3.org/2000/svg" height="24" viewBox="0 -960 960 960" width="24"><path d="M480-271.521q20.603 0 34.541-13.938 13.938-13.938 13.938-34.541v-151.521q0-20.604-13.938-34.541Q500.603-520 480-520q-20.603 0-34.541 13.938-13.938 13.937-13.938 34.541V-320q0 20.603 13.938 34.541 13.938 13.938 34.541 13.938Zm0-317.174q21.805 0 36.555-14.75T531.305-640q0-21.805-14.75-36.555T480-691.305q-21.805 0-36.555 14.75T428.695-640q0 21.805 14.75 36.555T480-588.695Zm0 527.913q-87.522 0-163.906-32.96-76.385-32.96-132.888-89.464-56.504-56.503-89.464-132.888Q60.782-392.478 60.782-480t32.96-163.906q32.96-76.385 89.464-132.888 56.503-56.504 132.888-89.464 76.384-32.96 163.906-32.96t163.906 32.96q76.385 32.96 132.888 89.464 56.504 56.503 89.464 132.888 32.96 76.384 32.96 163.906t-32.96 163.906q-32.96 76.385-89.464 132.888-56.503 56.504-132.888 89.464Q567.522-60.782 480-60.782Zm0-106.001q131.739 0 222.478-90.739T793.217-480q0-131.739-90.739-222.478T480-793.217q-131.739 0-222.478 90.739T166.783-480q0 131.739 90.739 222.478T480-166.783ZM480-480Z"/></svg>