<svg xmlns="http://www.w3.org/2000/svg" height="24" viewBox="0 -960 960 960" width="24"><path d="m422.304-427.784-71.303-71.303q-14.392-14.392-35.914-14.392-21.522 0-35.913 14.392-14.392 14.391-14.109 35.913.283 21.522 14.674 35.914l104.956 104.956q16.162 15.956 37.712 15.956 21.55 0 37.506-15.956l217.522-217.522q14.391-14.391 14.391-35.63 0-21.24-14.391-35.631-14.392-14.392-35.914-14.392-21.522 0-35.913 14.392L422.304-427.784ZM480-60.782q-87.522 0-163.906-32.96-76.385-32.96-132.888-89.464-56.504-56.503-89.464-132.888Q60.782-392.478 60.782-480t32.96-163.906q32.96-76.385 89.464-132.888 56.503-56.504 132.888-89.464 76.384-32.96 163.906-32.96t163.906 32.96q76.385 32.96 132.888 89.464 56.504 56.503 89.464 132.888 32.96 76.384 32.96 163.906t-32.96 163.906q-32.96 76.385-89.464 132.888-56.503 56.504-132.888 89.464Q567.522-60.782 480-60.782Zm0-106.001q131.739 0 222.478-90.739T793.217-480q0-131.739-90.739-222.478T480-793.217q-131.739 0-222.478 90.739T166.783-480q0 131.739 90.739 222.478T480-166.783ZM480-480Z"/></svg>