<svg xmlns="http://www.w3.org/2000/svg" height="24" viewBox="0 -960 960 960" width="24"><path d="M115.218-110.391q-14.957 0-26.832-7.365-11.876-7.365-18.473-19.418-6.696-11.826-7.196-25.772-.5-13.946 7.196-27.228L433.695-820q7.696-13.391 20.363-19.805 12.666-6.413 26-6.413 13.333 0 25.942 6.413 12.609 6.414 20.305 19.805l363.782 629.826q7.696 13.282 7.196 27.228-.5 13.946-7.196 25.772-6.696 11.826-18.522 19.305-11.826 7.478-26.783 7.478H115.218Zm76.913-97.522h575.738L480-704.173l-287.869 496.26ZM480-241.696q17.565 0 30.196-12.63 12.63-12.631 12.63-30.196t-12.63-29.913Q497.565-326.783 480-326.783t-30.196 12.348q-12.63 12.348-12.63 29.913 0 17.565 12.63 30.196 12.631 12.63 30.196 12.63ZM480-360q17 0 28.5-11.5T520-400v-113.782q0-17-11.5-28.5t-28.5-11.5q-17 0-28.5 11.5t-11.5 28.5V-400q0 17 11.5 28.5T480-360Zm0-96.043Z"/></svg>